HIERARCHY
ROOT Hips
{
	OFFSET 0.000000 0.000000 0.000000
	CHANNELS 6 Xposition Yposition Zposition Zrotation Yrotation Xrotation 
	JOINT LHipJoint
	{
		OFFSET 0.000000 0.000000 0.000000
		CHANNELS 3 Zrotation Yrotation Xrotation
		JOINT LeftUpLeg
		{
			OFFSET 1.363060 -1.794630 0.839290
			CHANNELS 3 Zrotation Yrotation Xrotation
			JOINT LeftLeg
			{
				OFFSET 2.448110 -6.726130 0.000000
				CHANNELS 3 Zrotation Yrotation Xrotation
				JOINT LeftFoot
				{
					OFFSET 2.562200 -7.039590 0.000000
					CHANNELS 3 Zrotation Yrotation Xrotation
					JOINT LeftToeBase
					{
						OFFSET 0.157640 -0.433110 2.322550
						CHANNELS 3 Zrotation Yrotation Xrotation
						End Site
						{
							OFFSET 0.000000 0.000000 0.000000
						}
					}
				}
			}
		}
	}
	JOINT RHipJoint
	{
		OFFSET 0.000000 0.000000 0.000000
		CHANNELS 3 Zrotation Yrotation Xrotation
		JOINT RightUpLeg
		{
			OFFSET -1.305520 -1.794630 0.839290
			CHANNELS 3 Zrotation Yrotation Xrotation
			JOINT RightLeg
			{
				OFFSET -2.542530 -6.985550 0.000000
				CHANNELS 3 Zrotation Yrotation Xrotation
				JOINT RightFoot
				{
					OFFSET -2.568260 -7.056230 0.000000
					CHANNELS 3 Zrotation Yrotation Xrotation
					JOINT RightToeBase
					{
						OFFSET -0.164730 -0.452590 2.363150
						CHANNELS 3 Zrotation Yrotation Xrotation
						End Site
						{
							OFFSET 0.000000 0.000000 0.000000
						}
					}
				}
			}
		}
	}
	JOINT LowerBack
	{
		OFFSET 0.000000 0.000000 0.000000
		CHANNELS 3 Zrotation Yrotation Xrotation
		JOINT Spine
		{
			OFFSET 0.028270 2.035590 -0.193380
			CHANNELS 3 Zrotation Yrotation Xrotation
			JOINT Spine1
			{
				OFFSET 0.056720 2.048850 -0.042750
				CHANNELS 3 Zrotation Yrotation Xrotation
				JOINT Neck
				{
					OFFSET 0.000000 0.000000 0.000000
					CHANNELS 3 Zrotation Yrotation Xrotation
					JOINT Neck1
					{
						OFFSET -0.054170 1.746240 0.172020
						CHANNELS 3 Zrotation Yrotation Xrotation
						JOINT Head
						{
							OFFSET 0.104070 1.761360 -0.123970
							CHANNELS 3 Zrotation Yrotation Xrotation
							End Site
							{
								OFFSET 0.000000 0.000000 0.000000
							}
						}
					}
				}
				JOINT LeftShoulder
				{
					OFFSET 0.000000 0.000000 0.000000
					CHANNELS 3 Zrotation Yrotation Xrotation
					JOINT LeftArm
					{
						OFFSET 3.362410 1.200890 -0.311210
						CHANNELS 3 Zrotation Yrotation Xrotation
						JOINT LeftForeArm
						{
							OFFSET 4.983000 -0.000000 -0.000000
							CHANNELS 3 Zrotation Yrotation Xrotation
							JOINT LeftHand
							{
								OFFSET 3.483560 -0.000000 -0.000000
								CHANNELS 3 Zrotation Yrotation Xrotation
								JOINT LeftFingerBase
								{
									OFFSET 0.000000 0.000000 0.000000
									CHANNELS 3 Zrotation Yrotation Xrotation
									JOINT LeftHandIndex1
									{
										OFFSET 0.715260 -0.000000 -0.000000
										CHANNELS 3 Zrotation Yrotation Xrotation
										End Site
										{
											OFFSET 0.000000 0.000000 0.000000
										}
									}
								}
								JOINT LThumb
								{
									OFFSET 0.000000 0.000000 0.000000
									CHANNELS 3 Zrotation Yrotation Xrotation
									End Site
									{
										OFFSET 0.000000 0.000000 0.000000
									}
								}
							}
						}
					}
				}
				JOINT RightShoulder
				{
					OFFSET 0.000000 0.000000 0.000000
					CHANNELS 3 Zrotation Yrotation Xrotation
					JOINT RightArm
					{
						OFFSET -3.136600 1.374050 -0.404650
						CHANNELS 3 Zrotation Yrotation Xrotation
						JOINT RightForeArm
						{
							OFFSET -5.241900 -0.000000 -0.000000
							CHANNELS 3 Zrotation Yrotation Xrotation
							JOINT RightHand
							{
								OFFSET -3.444170 -0.000000 -0.000000
								CHANNELS 3 Zrotation Yrotation Xrotation
								JOINT RightFingerBase
								{
									OFFSET 0.000000 0.000000 0.000000
									CHANNELS 3 Zrotation Yrotation Xrotation
									JOINT RightHandIndex1
									{
										OFFSET -0.622530 -0.000000 -0.000000
										CHANNELS 3 Zrotation Yrotation Xrotation
										End Site
										{
											OFFSET 0.000000 0.000000 0.000000
										}
									}
								}
								JOINT RThumb
								{
									OFFSET 0.000000 0.000000 0.000000
									CHANNELS 3 Zrotation Yrotation Xrotation
									End Site
									{
										OFFSET 0.000000 0.000000 0.000000
									}
								}
							}
						}
					}
				}
			}
		}
	}
}
MOTION
Frames: 10
Frame Time: 0.008333
2.358914 17.048854 0.532742 -19.969161 -81.228427 9.677113 -11.216583 2.555025 0.720462 -5.038512 11.589052 -3.519838 -0.884493 0.819136 22.709205 2.748179 17.171484 -11.493293 -1.270100 0.000000 -32.818000 10.396740 -2.453099 -2.499071 1.040042 -19.657045 -3.848114 -0.415919 -2.708411 39.875268 -2.902182 -17.829160 4.365374 -3.955600 0.000000 -71.081200 -8.009053 -2.714876 0.045254 -2.080394 -2.320031 -2.364771 -4.628467 -2.302859 1.595603 7.971707 -20.162878 -7.288279 -0.479547 -0.039359 0.101750 0.000000 0.000000 0.000000 6.207574 15.400034 0.056620 -54.974103 17.960529 -2.470711 -3.559812 -35.361806 0.001180 -3.649696 0.708668 -0.020595 -0.114989 0.021912 -0.000000 0.000000 0.000000 0.000000 0.000000 0.000000 0.000000 5.162724 -16.572688 -0.861169 70.468298 -13.246173 7.212558 2.551099 36.718987 0.013920 1.330393 7.332330 0.081386 0.084422 -0.077553 -0.000000 0.000000 0.000000 0.000000 0.000000 0.000000 0.000000 
2.358893 17.059278 0.561300 -20.842389 -80.573880 10.370287 -11.241891 2.541641 0.767406 -4.742617 11.355700 -3.183431 -0.859794 0.802067 22.392644 2.695415 16.851982 -11.375483 -1.216900 -0.000000 -33.077200 10.510225 -2.390957 -2.668535 0.929054 -20.696574 -6.034644 -0.526321 -2.899130 43.434703 -2.814276 -17.376141 5.221514 -3.988600 -0.000001 -69.148600 -8.021110 -2.856384 0.195684 -2.087081 -2.471231 -2.340916 -4.651329 -2.451867 1.559784 8.025661 -20.172383 -7.279448 -0.476378 -0.038890 0.101915 0.000000 0.000000 0.000000 6.394596 14.907992 0.068451 -54.465977 17.659052 -2.004651 -3.491944 -35.775455 0.001098 -3.567543 0.814678 -0.023197 -0.112636 0.024026 -0.000000 0.000000 0.000000 0.000000 0.000000 0.000000 0.000000 5.205679 -16.666574 -0.816673 70.720095 -13.434393 6.982313 2.597233 36.015622 0.013905 1.529756 7.281044 0.093669 0.083777 -0.074021 -0.000000 0.000000 0.000000 0.000000 0.000000 0.000000 0.000000 
2.361009 17.070280 0.588921 -21.822161 -79.951523 11.196805 -11.274471 2.520853 0.806562 -4.406621 11.193328 -2.916871 -0.833652 0.782392 22.101344 2.637477 16.505750 -11.248403 -1.161800 0.000001 -33.401500 10.609290 -2.313374 -2.829171 0.940553 -21.650430 -8.389656 -0.625879 -3.090265 47.014645 -2.737082 -16.911152 5.756667 -3.929499 -0.000000 -66.703100 -8.005362 -3.006169 0.340039 -2.087024 -2.632202 -2.316553 -4.674099 -2.610778 1.529639 8.086468 -20.191388 -7.283402 -0.471204 -0.038052 0.098804 0.000000 0.000000 0.000000 6.569282 14.446635 0.084268 -53.961341 17.350321 -1.571104 -3.422752 -36.207767 0.001053 -3.474694 0.912386 -0.025397 -0.110386 0.026537 -0.000000 0.000000 0.000000 0.000000 0.000000 0.000000 0.000000 5.248273 -16.772013 -0.772857 70.972275 -13.568485 6.757484 2.641177 35.322337 0.013902 1.698798 7.253639 0.104154 0.083314 -0.070911 -0.000000 0.000000 0.000000 0.000000 0.000000 0.000000 0.000000 
2.365483 17.081469 0.615471 -22.855205 -79.363560 12.072471 -11.312542 2.494674 0.832255 -4.035594 11.086003 -2.661872 -0.805400 0.762995 21.816720 2.577411 16.152112 -11.107833 -1.104100 -0.000000 -33.775899 10.693726 -2.216883 -3.002924 1.031653 -22.581045 -10.848000 -0.716277 -3.286582 50.556129 -2.661706 -16.406938 5.955405 -3.777700 -0.000000 -64.133899 -7.967925 -3.161570 0.510272 -2.082026 -2.800535 -2.286670 -4.697666 -2.776721 1.499054 8.152479 -20.204986 -7.296430 -0.466208 -0.037061 0.093155 0.000000 0.000000 0.000000 6.730640 14.000598 0.104163 -53.460374 17.057371 -1.180622 -3.352469 -36.671615 0.001054 -3.375512 0.996257 -0.026996 -0.108203 0.029410 -0.000000 0.000000 0.000000 0.000000 0.000000 0.000000 0.000000 5.294576 -16.870829 -0.730352 71.223466 -13.678415 6.527858 2.679861 34.686814 0.013866 1.838300 7.224364 0.112540 0.082909 -0.068176 -0.000000 0.000000 0.000000 0.000000 0.000000 0.000000 0.000000 
2.372481 17.092685 0.640897 -23.978272 -78.823658 13.038302 -11.357200 2.460736 0.842081 -3.626845 11.046254 -2.426810 -0.774610 0.743198 21.545136 2.516152 15.795808 -10.959476 -1.046199 0.000000 -34.190600 10.760204 -2.104708 -3.183938 1.227509 -23.452108 -13.419877 -0.802273 -3.493368 54.047512 -2.589867 -15.900263 5.834831 -3.557600 0.000000 -61.742400 -7.901747 -3.318362 0.701949 -2.070725 -2.972066 -2.252011 -4.722122 -2.945589 1.469463 8.221070 -20.216739 -7.318374 -0.461208 -0.035913 0.085048 0.000000 0.000000 0.000000 6.875636 13.580185 0.127504 -52.962310 16.774153 -0.827107 -3.281455 -37.161577 0.001100 -3.265171 1.061900 -0.027794 -0.106161 0.032653 -0.000000 0.000000 0.000000 0.000000 0.000000 0.000000 0.000000 5.341486 -16.965161 -0.689678 71.470302 -13.757217 6.317795 2.713097 34.110344 0.013816 1.946163 7.203591 0.119028 0.082566 -0.065841 -0.000000 0.000000 0.000000 0.000000 0.000000 0.000000 0.000000 
2.382113 17.103811 0.665252 -25.209281 -78.340254 14.110786 -11.408341 2.417665 0.834408 -3.181569 11.076136 -2.207994 -0.740780 0.722822 21.286420 2.455323 15.445941 -10.806596 -0.989400 0.000001 -34.631000 10.807014 -1.979080 -3.369669 1.539074 -24.248659 -16.103863 -0.888911 -3.713621 57.470014 -2.521574 -15.410805 5.442073 -3.293301 -0.000000 -59.779300 -7.803207 -3.472668 0.914148 -2.052555 -3.142864 -2.212906 -4.747434 -3.113477 1.440873 8.289728 -20.228748 -7.347363 -0.456590 -0.034677 0.074991 0.000000 0.000000 0.000000 7.003145 13.188234 0.153309 -52.467438 16.499770 -0.508398 -3.210172 -37.671996 0.001187 -3.140526 1.106590 -0.027791 -0.104315 0.036243 -0.000000 0.000000 0.000000 0.000000 0.000000 0.000000 0.000000 5.388324 -17.055685 -0.651662 71.706740 -13.808029 6.154621 2.739761 33.605591 0.013752 2.019672 7.190355 0.123516 0.082269 -0.063870 -0.000000 0.000000 0.000000 0.000000 0.000000 0.000000 0.000000 
2.394660 17.114635 0.688624 -26.556189 -77.914389 15.285663 -11.465744 2.364276 0.804654 -2.698944 11.167876 -1.977448 -0.703086 0.703061 21.031762 2.396829 15.113708 -10.649416 -0.934000 -0.000000 -35.082700 10.833431 -1.840619 -3.564483 1.960490 -24.974335 -18.873337 -0.980616 -3.948534 60.797492 -2.455568 -14.941638 4.841102 -3.005001 0.000000 -58.400500 -7.669401 -3.621437 1.159229 -2.027121 -3.310064 -2.167244 -4.773649 -3.277342 1.412254 8.354871 -20.236709 -7.380333 -0.452913 -0.033445 0.063673 0.000000 0.000000 0.000000 7.112545 12.823195 0.180995 -51.980061 16.232741 -0.225694 -3.139339 -38.195189 0.001300 -2.999733 1.130079 -0.026986 -0.102721 0.040130 -0.000000 0.000000 0.000000 0.000000 0.000000 0.000000 0.000000 5.431951 -17.137209 -0.616807 71.933999 -13.837358 6.043168 2.759818 33.181314 0.013674 2.066839 7.184793 0.126405 0.081930 -0.062229 -0.000000 0.000000 0.000000 0.000000 0.000000 0.000000 0.000000 
2.409922 17.125154 0.711160 -28.019247 -77.544471 16.564567 -11.527799 2.300572 0.754648 -2.185115 11.310835 -1.732824 -0.661203 0.683860 20.779605 2.342484 14.809222 -10.489486 -0.880500 -0.000000 -35.528600 10.839057 -1.690881 -3.765623 2.493840 -25.630618 -21.726622 -1.080565 -4.197028 64.009476 -2.391330 -14.493056 4.100776 -2.710300 0.000000 -57.661600 -7.499321 -3.762641 1.432627 -1.994288 -3.471392 -2.116031 -4.800307 -3.435009 1.383732 8.413407 -20.240588 -7.413191 -0.450657 -0.032333 0.052222 0.000000 0.000000 0.000000 7.204215 12.483253 0.209197 -51.501670 15.972776 0.025042 -3.069574 -38.722514 0.001423 -2.842228 1.134484 -0.025480 -0.101414 0.044232 0.000000 0.000000 0.000000 0.000000 0.000000 0.000000 0.000000 5.470643 -17.209674 -0.586093 72.149780 -13.854591 5.993713 2.773415 32.843867 0.013581 2.094708 7.186067 0.128195 0.081493 -0.060853 -0.000000 0.000000 0.000000 0.000000 0.000000 0.000000 0.000000 
2.428111 17.135235 0.733041 -29.609000 -77.224644 17.948535 -11.594112 2.225751 0.681425 -1.638007 11.493318 -1.451100 -0.614362 0.666504 20.523252 2.293562 14.539820 -10.326496 -0.828799 0.000000 -35.956900 10.823377 -1.530630 -3.975619 3.134391 -26.222541 -24.640159 -1.190776 -4.457015 67.080399 -2.328470 -14.062190 3.290647 -2.423800 0.000001 -57.537700 -7.289253 -3.894607 1.743245 -1.953345 -3.625274 -2.057626 -4.826978 -3.584786 1.355120 8.462056 -20.239601 -7.442716 -0.450119 -0.031419 0.041392 0.000000 0.000000 0.000000 7.277512 12.167058 0.237104 -51.037721 15.714727 0.244191 -3.001651 -39.244748 0.001540 -2.670125 1.123418 -0.023474 -0.100411 0.048462 0.000000 0.000000 0.000000 0.000000 0.000000 0.000000 0.000000 5.501334 -17.272653 -0.560155 72.353345 -13.862823 6.017748 2.780567 32.595488 0.013468 2.107538 7.191653 0.129085 0.080917 -0.059666 -0.000000 0.000000 0.000000 0.000000 0.000000 0.000000 0.000000 
2.449159 17.144797 0.754542 -31.316507 -76.944840 19.426000 -11.663073 2.140302 0.586797 -1.062935 11.697933 -1.125901 -0.562296 0.651799 20.261405 2.251375 14.312624 -10.160929 -0.778601 -0.000000 -36.354800 10.786124 -1.360158 -4.194205 3.877189 -26.761168 -27.605089 -1.311473 -4.724956 69.987211 -2.266427 -13.642314 2.471449 -2.155500 -0.000000 -57.934200 -7.038997 -4.017109 2.090425 -1.904219 -3.771261 -1.992232 -4.852900 -3.726270 1.326367 8.497554 -20.232004 -7.464420 -0.451585 -0.030807 0.032363 0.000000 0.000000 0.000000 7.332329 11.870895 0.263560 -50.590885 15.456338 0.436319 -2.936077 -39.755325 0.001636 -2.487893 1.101776 -0.021267 -0.099680 0.052716 0.000000 0.000000 0.000000 0.000000 0.000000 0.000000 0.000000 5.520721 -17.325393 -0.539792 72.545324 -13.870314 6.113547 2.782056 32.434036 0.013332 2.114380 7.200324 0.129675 0.080149 -0.058596 -0.000000 0.000000 0.000000 0.000000 0.000000 0.000000 0.000000 
